<?xml version="1.0" ?><!DOCTYPE svg  PUBLIC '-//W3C//DTD SVG 1.1//EN'  'http://www.w3.org/Graphics/SVG/1.1/DTD/svg11.dtd'><svg enable-background="new 0 0 64 64" height="64px" id="Layer_1" version="1.1" viewBox="0 0 64 64" width="64px" xml:space="preserve" xmlns="http://www.w3.org/2000/svg" xmlns:xlink="http://www.w3.org/1999/xlink"><g><path d="M28.2,31.5l3.4-5.3c0.2-0.3,0.2-0.7,0-1c-0.2-0.3-0.5-0.5-0.9-0.5c0,0,0,0,0,0l-6.5,0c-0.4,0-0.7,0.2-0.9,0.5   c-0.2,0.3-0.2,0.7,0,1l3,5.2c0.2,0.3,0.5,0.5,0.8,0.5c0,0,0,0,0,0C27.7,32,28,31.8,28.2,31.5z M26,26.7l2.9,0l-1.5,2.3L26,26.7z"/><path d="M52.3,30.2c-1-0.3-2-0.3-3,0.2c-3,1.6-4.6,7-6.2,12.8c-0.4,1.4-0.9,2.9-1.3,4.3c-0.8,2.4-1.8,3.8-3,4.2   c-1.2,0.4-2.3-0.4-2.3-0.4c-0.2-0.1-0.4-0.2-0.6-0.2l1.9-7.9c0-0.1,0-0.2,0-0.2c0-1.8-1.4-2.9-3.5-2.9h-2.6l0-1c0-0.5-0.5-1-1-1   h-1.3c2.3-0.6,4.7-2.8,6.8-5.5l7.5,2.4c0.1,0,0.2,0,0.3,0c0.4,0,0.8-0.3,1-0.7c0.2-0.5-0.1-1.1-0.7-1.3l-6.9-2.2   c0.6-0.9,1.1-1.8,1.6-2.8l8.1,0.5c0,0,0,0,0.1,0c0.5,0,1-0.4,1-0.9c0-0.6-0.4-1-0.9-1.1L39.8,26c1.2-2.8,1.9-5.6,1.9-8.1   c0-2.7-0.9-5.4-2.7-7.8c-0.2-0.3,0-1.7,0.2-2.5c0.3-1.9,0.5-3.6-0.5-4.4C38.4,3,38,2.9,37.6,2.9c-0.9,0-2,0.6-3.1,1.1   c-0.7,0.3-1.7,0.8-2,0.9c-1.5-0.7-3.1-1-4.6-1c-1.7,0-3.6,0.5-5.5,1.4c-0.5-0.1-1.5-0.8-2.3-1.2c-1.7-0.9-2.7-1.5-3.5-1.5   c-0.4,0-0.7,0.2-0.9,0.3c-1.1,0.9-0.6,2.7,0,4.9c0.3,0.9,0.7,2.5,0.6,2.8c-1.6,2.3-2.4,4.8-2.4,7.4c0,2.4,0.7,5.2,1.9,8l-8,0.5   c-0.6,0-1,0.5-0.9,1.1c0,0.5,0.5,0.9,1,0.9c0,0,0,0,0.1,0l8.8-0.5c0.5,0.9,1,1.8,1.5,2.7l-7.5,2.4c-0.5,0.2-0.8,0.7-0.7,1.3   c0.1,0.4,0.5,0.7,1,0.7c0.1,0,0.2,0,0.3,0l8-2.6c2.1,2.9,4.6,5.1,6.9,5.7h-1.1c-0.3,0-0.5,0.1-0.7,0.3s-0.3,0.5-0.3,0.7l0,1h-2.8   c-2.2,0-3.5,1.1-3.5,2.9c0,0.1,0,0.2,0,0.3l2.5,9.5c0,0,0,0.1,0,0.1c0.2,0.5,0.4,1.1,0.8,1.7c-1.2,0.7-2,2.2-2,3.5   c0,1.9,1.6,4,3.7,4h2.7c1.1,0,2.1-0.6,2.7-1.4c0.7,0.8,1.6,1.4,2.7,1.4h2.7c2.1,0,3.8-2.1,3.8-4c0-1.7-1.3-3.5-3.1-3.9   c0.2-0.3,0.4-0.7,0.5-1.1c0.3,0.2,1.4,0.8,2.7,0.8c0.4,0,0.8-0.1,1.3-0.2c1.9-0.6,3.3-2.4,4.3-5.5c0.5-1.4,0.9-2.9,1.3-4.3   c1.4-4.9,3.1-10.4,5.3-11.6c0.4-0.2,0.9-0.3,1.4-0.1c3,1,4,3.1,3,6.3c-0.2,0.7-1.4,1.6-2.3,1.4c-0.7-0.1-1-1.2-0.9-2.8   c0-0.6-0.4-1-0.9-1.1c-0.6,0-1,0.4-1.1,0.9c-0.3,3.8,1.4,4.7,2.5,4.9c1.9,0.4,4-1.2,4.5-2.7C57.9,34.8,56.3,31.5,52.3,30.2z    M21.4,31.5c0.3-0.3,0.4-0.6,0.2-1c-0.2-0.5-0.7-0.8-1.3-0.6l-0.1,0c-0.4-0.7-0.9-1.4-1.3-2.2l0.9,0c0.6,0,1-0.5,0.9-1.1   c0-0.6-0.5-1-1.1-0.9l-1.7,0.1C16.8,23,16,20.2,16,17.9c0-2.1,0.7-4.3,2-6.2c0.7-1,0.2-2.5-0.3-4.5c-0.2-0.7-0.5-1.8-0.6-2.4   c0.6,0.3,1.4,0.8,2,1.1c2.1,1.2,3.2,1.7,4,1.3c1.6-0.8,3.3-1.3,4.7-1.3c1.2,0,2.5,0.3,3.8,0.9c0.9,0.4,2.2-0.2,3.7-1   c0.6-0.3,1.5-0.8,2-0.9c0.1,0.5-0.1,1.7-0.2,2.4c-0.2,1.7-0.4,3.1,0.2,4c1.1,1.5,1.9,3.2,2.2,4.9c0-0.2-0.1-0.3-0.1-0.5   c-0.3-0.7-1-1.8-2.8-1.8c-1.5,0-3.2,0.7-4.6,1.2l-0.7,0.3c-1.4,0.6-2.8,1.1-3.3,2.3c0,0.1,0,0.2-0.1,0.2c0-0.1,0-0.2-0.1-0.2   c-0.5-1.2-1.9-1.8-3.3-2.3l-0.7-0.3c-1.4-0.6-3.1-1.2-4.6-1.2c-1.8,0-2.5,1.1-2.8,1.7c-0.4,0.9-0.3,2,0.2,3.1   c0.8,1.8,2.6,3.6,4.4,4.3c0.6,0.2,1.3,0.4,1.9,0.4c2.1,0,4.1-1.3,4.9-3.3c0.1-0.2,0.1-0.4,0.2-0.5c0,0.2,0.1,0.3,0.2,0.5   c0.8,2,2.7,3.3,4.8,3.3h0c0.7,0,1.3-0.1,1.9-0.4c1.8-0.7,3.6-2.5,4.4-4.3c0.3-0.7,0.4-1.3,0.4-2c0,0.3,0.1,0.7,0.1,1   c0,2.3-0.8,5.1-2.1,7.9l-2.4-0.1c-0.6,0-1,0.4-1.1,0.9c0,0.6,0.4,1,0.9,1.1l1.5,0.1c-0.4,0.8-0.9,1.6-1.4,2.3l-0.7-0.2   c-0.5-0.2-1.1,0.1-1.3,0.6c-0.2,0.5,0.1,1.1,0.7,1.3l0.1,0c-2,2.6-4.2,4.4-6.2,4.4C25.8,36.2,23.5,34.3,21.4,31.5z M32,21.4   c-0.9-0.3-1.7-1-2.1-1.9c-0.1-0.3-0.2-0.6-0.1-0.9c0.2-0.4,1.2-0.8,2.2-1.2V21.4z M33.9,16.7c0.9-0.3,1.9-0.7,2.7-0.7   c0.7,0,0.8,0.2,0.9,0.5c0.2,0.5,0,1.2-0.2,1.6c-0.6,1.3-2,2.7-3.3,3.2c0,0-0.1,0-0.1,0V17C34,16.9,34,16.8,33.9,16.7z M22,17v4.4   c-0.1,0-0.2,0-0.3-0.1c-1.3-0.5-2.7-1.9-3.3-3.2c-0.2-0.4-0.4-1.1-0.2-1.6c0.1-0.2,0.3-0.5,0.9-0.5c0.8,0,1.8,0.3,2.8,0.7   C22,16.8,22,16.9,22,17z M24,17.5c0.9,0.4,1.8,0.8,2,1.2c0.1,0.2,0,0.6-0.1,0.9c-0.4,0.9-1,1.5-1.9,1.8V17.5z M20,42.8   c0-0.3,0.2-0.8,1.5-0.8h3.9c0.3,0,0.5-0.1,0.7-0.3s0.3-0.5,0.3-0.7l0-1h3.2l0,1c0,0.5,0.5,1,1,1h3.6c1.4,0,1.5,0.5,1.5,0.8   l-2.3,9.4c0,0.1-0.1,0.1-0.1,0.2c-0.3-3.7-2.5-6.5-5.3-6.5c-2.9,0-5.2,3-5.3,6.9c-0.1-0.2-0.2-0.4-0.3-0.7L20,42.8z M25.9,54h-1.5   c0.2-0.2,0.4-0.4,0.4-0.8c0-2.8,1.5-5.3,3.3-5.3c1.8,0,3.3,2.4,3.3,5.3c0,0.3,0.1,0.6,0.4,0.8c0,0-0.1,0-0.1,0h-0.3H25.9z M25.9,60   h-2.7c-0.9,0-1.7-1.1-1.7-2s0.8-2,1.7-2h0.9h1.8c0.9,0,1.7,1.1,1.7,2S26.8,60,25.9,60z M35.9,58c0,0.9-0.8,2-1.8,2h-2.7   c-0.9,0-1.7-1.1-1.7-2s0.8-2,1.7-2h0.3h2.4C35.1,56,35.9,57.1,35.9,58z"/></g></svg>